<svg height="512pt" viewBox="0 0 512 512" width="512pt" xmlns="http://www.w3.org/2000/svg"><path d="m512 256c0 8.328125-.398438 16.558594-1.179688 24.679688-10.898437 113.929687-96.46875 206.058593-207.199218 226.890624-15.429688 2.910157-31.351563 4.429688-47.621094 4.429688-141.378906 0-256-114.621094-256-256s114.621094-256 256-256 256 114.621094 256 256zm0 0" fill="#ffcd00"/><path d="m510.820312 280.679688c-10.898437 113.929687-96.46875 206.058593-207.199218 226.890624l-185.449219-185.441406 317.828125-116.269531zm0 0" fill="#ff9600"/><path d="m256 371.136719c-91.128906 0-165-73.875-165-165v-.273438h330v.273438c0 91.125-73.871094 165-165 165zm0 0" fill="#ff455a"/><path d="m421 205.859375v.28125c0 91.121094-73.871094 165-165 165v-165.28125zm0 0" fill="#bf0032"/><path d="m406 205.863281v2.21875h-.023438c-1.046874 81.816407-67.917968 148.054688-149.976562 148.054688s-148.929688-66.238281-149.976562-148.054688h-.023438v-2.21875h-30v.273438c0 99.25 80.746094 180 180 180s180-80.75 180-180v-.273438zm0 0" fill="#a8d32a"/><path d="m436 205.859375v.28125c0 99.25-80.75 180-180 180v-30c82.058594 0 148.929688-66.242187 149.980469-148.0625h.019531v-2.21875zm0 0" fill="#81a713"/><path d="m271.1875 330.378906c0 8.386719-6.800781 15.1875-15.1875 15.1875s-15.1875-6.800781-15.1875-15.1875c0-8.386718 6.800781-15.1875 15.1875-15.1875s15.1875 6.800782 15.1875 15.1875zm0 0" fill="#004692"/><path d="m334.1875 297.378906c0 8.386719-6.800781 15.1875-15.1875 15.1875s-15.1875-6.800781-15.1875-15.1875c0-8.386718 6.800781-15.1875 15.1875-15.1875s15.1875 6.800782 15.1875 15.1875zm0 0" fill="#00204c"/><path d="m380.1875 241.378906c0 8.386719-6.800781 15.1875-15.1875 15.1875s-15.1875-6.800781-15.1875-15.1875c0-8.386718 6.800781-15.1875 15.1875-15.1875s15.1875 6.800782 15.1875 15.1875zm0 0" fill="#00204c"/><path d="m304.1875 241.378906c0 8.386719-6.800781 15.1875-15.1875 15.1875s-15.1875-6.800781-15.1875-15.1875c0-8.386718 6.800781-15.1875 15.1875-15.1875s15.1875 6.800782 15.1875 15.1875zm0 0" fill="#00204c"/><path d="m271.1875 281.378906c0 8.386719-6.800781 15.1875-15.1875 15.1875s-15.1875-6.800781-15.1875-15.1875c0-8.386718 6.800781-15.1875 15.1875-15.1875s15.1875 6.800782 15.1875 15.1875zm0 0" fill="#004692"/><path d="m271.191406 330.378906c0 8.390625-6.800781 15.179688-15.191406 15.179688v-30.367188c8.390625 0 15.191406 6.796875 15.191406 15.1875zm0 0" fill="#00204c"/><path d="m271.191406 281.378906c0 8.390625-6.800781 15.179688-15.191406 15.179688v-30.367188c8.390625 0 15.191406 6.796875 15.191406 15.1875zm0 0" fill="#00204c"/><g fill="#004692"><path d="m234.1875 241.378906c0 8.386719-6.800781 15.1875-15.1875 15.1875s-15.1875-6.800781-15.1875-15.1875c0-8.386718 6.800781-15.1875 15.1875-15.1875s15.1875 6.800782 15.1875 15.1875zm0 0"/><path d="m161.1875 241.378906c0 8.386719-6.800781 15.1875-15.1875 15.1875s-15.1875-6.800781-15.1875-15.1875c0-8.386718 6.800781-15.1875 15.1875-15.1875s15.1875 6.800782 15.1875 15.1875zm0 0"/><path d="m208.1875 297.378906c0 8.386719-6.800781 15.1875-15.1875 15.1875s-15.1875-6.800781-15.1875-15.1875c0-8.386718 6.800781-15.1875 15.1875-15.1875s15.1875 6.800782 15.1875 15.1875zm0 0"/></g></svg>